<svg xmlns="http://www.w3.org/2000/svg" viewBox="0 0 45.82 71.55"><defs><style>.cls-1{fill:#005a2e;}</style></defs><g id="Layer_2" data-name="Layer 2"><g id="Layer_1-2" data-name="Layer 1"><path class="cls-1" d="M22.91,21.38a6.28,6.28,0,1,1-6.27,6.28,6.29,6.29,0,0,1,6.27-6.28m7.26,12.55a9.52,9.52,0,0,0,2.19-4.61h7.27V26H32.36a9.6,9.6,0,0,0-7.78-7.79V15.12a8.86,8.86,0,0,0,7.18-8.69H28.43a5.52,5.52,0,1,1-11,0H14.06a8.86,8.86,0,0,0,7.19,8.69v3.09A9.63,9.63,0,0,0,13.46,26H6.2v3.32h7.26A9.54,9.54,0,0,0,15.7,34L9.13,42l2.57,2.11,6.58-8a9.45,9.45,0,0,0,3,1V65.34h3.33V37.11a9.79,9.79,0,0,0,3-1.07l6.61,8L36.78,42ZM45.82,23.66,33.65,71.55H12.17L0,23.66,13.72,0H32.1Z"/></g></g></svg>